<svg width="24" height="25" viewBox="0 0 24 25" fill="none" xmlns="http://www.w3.org/2000/svg">
<path d="M13.0755 6.93152C13.0755 7.52856 12.5918 8.01226 11.9948 8.01226C11.3978 8.01226 10.9141 7.52856 10.9141 6.93152C10.9141 6.33449 11.3978 5.85079 11.9948 5.85079V4.65625" stroke="white" stroke-width="0.446603" stroke-miterlimit="10" stroke-linecap="round" stroke-linejoin="round"/>
<path d="M5.84961 10.058L10.124 8.01172" stroke="white" stroke-width="1.5" stroke-miterlimit="10" stroke-linecap="round" stroke-linejoin="round"/>
<path d="M18.1373 10.0582L13.9595 8.05859" stroke="white" stroke-width="1.5" stroke-miterlimit="10" stroke-linecap="round" stroke-linejoin="round"/>
<path d="M19.5065 11.1055H4.4933C4.37949 11.1055 4.2876 11.1974 4.2876 11.3112V19.8969C4.2876 20.0107 4.37949 20.1026 4.4933 20.1026H19.5065C19.6203 20.1026 19.7122 20.0107 19.7122 19.8969V11.3112C19.7122 11.1974 19.6198 11.1055 19.5065 11.1055Z" stroke="white" stroke-width="1.5" stroke-miterlimit="10" stroke-linecap="round" stroke-linejoin="round"/>
<path d="M14.5713 18.5819V12.627" stroke="white" stroke-width="0.410692" stroke-miterlimit="10" stroke-linecap="round" stroke-linejoin="round"/>
<path d="M14.5713 18.5819V12.627" stroke="white" stroke-miterlimit="10" stroke-linecap="round" stroke-linejoin="round"/>
<path d="M9.42871 18.5819V12.627" stroke="white" stroke-miterlimit="10" stroke-linecap="round" stroke-linejoin="round"/>
</svg>
