<svg width="18" height="18" viewBox="0 0 18 18" fill="none" xmlns="http://www.w3.org/2000/svg">
<path d="M7.17993 10.2747C7.17993 10.9809 7.72596 11.5487 8.39574 11.5487H9.7644C10.3468 11.5487 10.82 11.0537 10.82 10.4349C10.82 9.77237 10.5288 9.53212 10.0993 9.37924L7.90795 8.61481C7.47842 8.46193 7.18722 8.22897 7.18722 7.55919C7.18722 6.94765 7.66042 6.44531 8.24284 6.44531H9.61152C10.2813 6.44531 10.8273 7.01317 10.8273 7.71935" stroke="#267FEC" stroke-width="1.09203" stroke-linecap="round" stroke-linejoin="round"/>
<path d="M9.00024 5.72266V12.2749" stroke="#267FEC" stroke-width="1.09203" stroke-linecap="round" stroke-linejoin="round"/>
<path d="M16.2799 9.00092C16.2799 13.0196 13.0184 16.2811 8.9997 16.2811C4.98102 16.2811 1.71948 13.0196 1.71948 9.00092C1.71948 4.98224 4.98102 1.7207 8.9997 1.7207" stroke="#267FEC" stroke-width="1.09203" stroke-linecap="round" stroke-linejoin="round"/>
<path d="M16.2805 4.63279V1.7207H13.3684" stroke="#267FEC" stroke-width="1.09203" stroke-linecap="round" stroke-linejoin="round"/>
<path d="M12.6396 5.36081L16.2798 1.7207" stroke="#267FEC" stroke-width="1.09203" stroke-linecap="round" stroke-linejoin="round"/>
</svg>
