<svg width="32" height="32" viewBox="0 0 32 32" fill="none" xmlns="http://www.w3.org/2000/svg">
<path d="M6.08325 8.91667C6.08325 8.13307 6.71632 7.5 7.49992 7.5H20.4999C21.2835 7.5 21.9166 8.13307 21.9166 8.91667C21.9166 9.70026 21.2835 10.3333 20.4999 10.3333H7.49992C6.71632 10.3333 6.08325 9.70026 6.08325 8.91667ZM6.08325 16C6.08325 15.2164 6.71632 14.5833 7.49992 14.5833H24.4999C25.2835 14.5833 25.9166 15.2164 25.9166 16C25.9166 16.7836 25.2835 17.4167 24.4999 17.4167H7.49992C6.71632 17.4167 6.08325 16.7836 6.08325 16ZM15.2499 23.0833C15.2499 23.8669 14.6168 24.5 13.8333 24.5H7.49992C6.71632 24.5 6.08325 23.8669 6.08325 23.0833C6.08325 22.2997 6.71632 21.6667 7.49992 21.6667H13.8333C14.6168 21.6667 15.2499 22.2997 15.2499 23.0833Z" fill="#667085"/>
</svg>
