<svg width="394" height="290" viewBox="0 0 394 290" fill="none" xmlns="http://www.w3.org/2000/svg">
<path d="M32.315 260.433L20.8922 240.382H12.7524V260.433H0V201.664H23.7411C27.6618 201.664 31.1619 202.505 34.2414 204.187C37.3142 205.87 39.7494 208.169 41.5401 211.079C43.3309 213.996 44.2263 217.347 44.2263 221.145C44.2263 224.944 43.2563 228.349 41.3231 231.347C39.4034 234.332 36.819 236.611 33.5631 238.185L46.5868 260.433H32.315ZM12.7524 213.413V228.607H22.9C25.5386 228.607 27.6075 227.901 29.1134 226.49C30.6328 225.066 31.3925 223.255 31.3925 221.064C31.3925 218.825 30.6328 216.987 29.1134 215.556C27.6075 214.132 25.5386 213.413 22.9 213.413H12.7524Z" fill="#3C0366"/>
<path d="M53.8042 260.433V201.664H66.5566V260.433H53.8042Z" fill="#3C0366"/>
<path d="M150.324 260.433H137.409L131.602 222.068L114.074 260.352H110.954L93.3994 222.068L87.6201 260.433H74.5964L83.8487 201.664H96.601L112.474 237.696L128.428 201.664H141.18L150.324 260.433Z" fill="#3C0366"/>
<path d="M193.801 229.448C196.365 230.805 198.366 232.704 199.797 235.146C201.222 237.574 201.941 240.348 201.941 243.476C201.941 246.609 201.113 249.465 199.472 252.049C197.824 254.62 195.578 256.662 192.743 258.181C189.921 259.687 186.835 260.433 183.491 260.433H158.474V201.664H182.812C186.156 201.664 189.161 202.329 191.82 203.645C194.479 204.967 196.575 206.779 198.115 209.071C199.669 211.35 200.449 213.921 200.449 216.777C200.449 219.294 199.858 221.674 198.685 223.913C197.505 226.158 195.877 228.003 193.801 229.448ZM188.103 218.785C188.103 216.94 187.513 215.434 186.34 214.254C185.159 213.08 183.559 212.49 181.537 212.49H170.983V224.998H181.537C183.559 224.998 185.159 224.415 186.34 223.235C187.513 222.061 188.103 220.576 188.103 218.785ZM182.215 248.766C184.345 248.766 186.041 248.156 187.289 246.921C188.551 245.694 189.189 244.1 189.189 242.146C189.189 240.233 188.551 238.659 187.289 237.425C186.041 236.197 184.345 235.58 182.215 235.58H170.983V248.766H182.215Z" fill="#3C0366"/>
<path d="M223.435 248.604H246.851V260.433H210.683V201.664H245.928V213.413H223.435V224.998H243.758V236.502H223.435V248.604Z" fill="#3C0366"/>
<path d="M288.241 260.433L276.818 240.382H268.678V260.433H255.926V201.664H279.667C283.588 201.664 287.088 202.505 290.167 204.187C293.24 205.87 295.675 208.169 297.466 211.079C299.257 213.996 300.152 217.347 300.152 221.145C300.152 224.944 299.182 228.349 297.249 231.347C295.329 234.332 292.745 236.611 289.489 238.185L302.513 260.433H288.241ZM268.678 213.413V228.607H278.826C281.464 228.607 283.533 227.901 285.039 226.49C286.559 225.066 287.318 223.255 287.318 221.064C287.318 218.825 286.559 216.987 285.039 215.556C283.533 214.132 281.464 213.413 278.826 213.413H268.678Z" fill="#3C0366"/>
<path d="M309.729 260.433V201.664H322.482V260.433H309.729Z" fill="#3C0366"/>
<path d="M362.105 261.684C357.614 261.684 353.463 260.91 349.651 259.377C345.852 257.844 342.542 255.687 339.72 252.92C336.898 250.152 334.701 246.91 333.127 243.179C331.567 239.455 330.793 235.412 330.793 231.051C330.793 226.696 331.567 222.653 333.127 218.922C334.701 215.198 336.898 211.949 339.72 209.182C342.542 206.414 345.852 204.264 349.651 202.724C353.463 201.191 357.614 200.418 362.105 200.418C366.568 200.418 370.706 201.191 374.504 202.724C378.316 204.264 381.62 206.414 384.408 209.182C387.209 211.949 389.4 215.198 390.974 218.922C392.547 222.653 393.334 226.696 393.334 231.051C393.334 235.412 392.547 239.455 390.974 243.179C389.4 246.91 387.209 250.152 384.408 252.92C381.62 255.687 378.316 257.844 374.504 259.377C370.706 260.91 366.568 261.684 362.105 261.684ZM362.105 249.691C365.632 249.691 368.779 248.89 371.547 247.276C374.314 245.648 376.492 243.437 378.086 240.629C379.673 237.827 380.473 234.632 380.473 231.051C380.473 227.524 379.673 224.349 378.086 221.527C376.492 218.705 374.314 216.481 371.547 214.853C368.779 213.225 365.632 212.411 362.105 212.411C358.632 212.411 355.491 213.225 352.69 214.853C349.881 216.481 347.67 218.705 346.042 221.527C344.428 224.349 343.627 227.524 343.627 231.051C343.627 234.578 344.428 237.766 346.042 240.601C347.67 243.423 349.881 245.648 352.69 247.276C355.491 248.89 358.632 249.691 362.105 249.691Z" fill="#3C0366"/>
<path d="M78.5622 277.054H73.5969V275.264H85.5624V277.054H80.5972V289.725H78.5622V277.054Z" fill="#3C0366"/>
<path d="M101.073 289.725L97.9531 285.276C97.5529 285.316 97.2476 285.33 97.0306 285.33H93.449V289.725H91.387V275.264H97.0306C98.9095 275.264 100.381 275.718 101.453 276.62C102.538 277.509 103.081 278.737 103.081 280.31C103.081 281.416 102.796 282.366 102.24 283.159C101.697 283.939 100.911 284.509 99.8795 284.869L103.325 289.725H101.073ZM96.9763 283.566C98.2787 283.566 99.269 283.288 99.9609 282.725C100.646 282.149 100.992 281.341 100.992 280.31C100.992 279.266 100.646 278.459 99.9609 277.896C99.269 277.339 98.2787 277.054 96.9763 277.054H93.449V283.566H96.9763Z" fill="#3C0366"/>
<path d="M115.976 289.888C114.036 289.888 112.53 289.339 111.445 288.233C110.373 287.134 109.844 285.547 109.844 283.485V275.264H111.933V283.403C111.933 286.497 113.29 288.043 116.003 288.043C117.319 288.043 118.337 287.663 119.042 286.904C119.747 286.144 120.1 284.977 120.1 283.403V275.264H122.108V283.485C122.108 285.567 121.565 287.161 120.48 288.26C119.408 289.346 117.909 289.888 115.976 289.888Z" fill="#3C0366"/>
<path d="M136.379 289.889C134.928 289.889 133.618 289.577 132.445 288.939C131.285 288.288 130.369 287.406 129.705 286.28C129.053 285.161 128.728 283.893 128.728 282.482C128.728 281.091 129.053 279.836 129.705 278.71C130.369 277.571 131.285 276.689 132.445 276.051C133.618 275.42 134.928 275.102 136.379 275.102C137.519 275.102 138.55 275.291 139.472 275.671C140.408 276.038 141.216 276.594 141.887 277.354L140.53 278.656C139.445 277.503 138.089 276.919 136.461 276.919C135.389 276.919 134.426 277.164 133.557 277.652C132.689 278.14 132.011 278.812 131.522 279.66C131.034 280.494 130.79 281.437 130.79 282.482C130.79 283.533 131.034 284.483 131.522 285.331C132.011 286.185 132.689 286.85 133.557 287.338C134.426 287.813 135.389 288.044 136.461 288.044C138.068 288.044 139.425 287.467 140.53 286.307L141.887 287.61C141.216 288.356 140.408 288.926 139.472 289.319C138.529 289.699 137.498 289.889 136.379 289.889Z" fill="#3C0366"/>
<path d="M153.126 283.295L150.467 285.981V289.725H148.405V275.264H150.467V283.349L158.335 275.264H160.696L154.509 281.776L161.075 289.725H158.661L153.126 283.295Z" fill="#3C0366"/>
<path d="M166.832 275.264H168.894V289.725H166.832V275.264Z" fill="#3C0366"/>
<path d="M189.266 275.264V289.725H187.556L178.874 278.927V289.725H176.812V275.264H178.494L187.204 286.035V275.264H189.266Z" fill="#3C0366"/>
<path d="M207.199 282.4H209.18V288.044C208.454 288.641 207.613 289.102 206.657 289.428C205.714 289.733 204.73 289.889 203.699 289.889C202.234 289.889 200.911 289.577 199.738 288.939C198.557 288.288 197.635 287.406 196.97 286.28C196.319 285.161 195.993 283.893 195.993 282.482C195.993 281.091 196.319 279.836 196.97 278.71C197.635 277.571 198.557 276.689 199.738 276.051C200.932 275.42 202.261 275.102 203.726 275.102C204.879 275.102 205.931 275.291 206.874 275.671C207.83 276.038 208.637 276.587 209.288 277.326L208.013 278.602C206.853 277.482 205.449 276.919 203.808 276.919C202.702 276.919 201.718 277.164 200.85 277.652C199.982 278.127 199.29 278.785 198.788 279.633C198.3 280.487 198.055 281.437 198.055 282.482C198.055 283.533 198.3 284.483 198.788 285.331C199.29 286.185 199.982 286.85 200.85 287.338C201.718 287.813 202.702 288.044 203.808 288.044C205.09 288.044 206.222 287.739 207.199 287.121V282.4Z" fill="#3C0366"/>
<path d="M232.3 289.889C230.848 289.889 229.539 289.577 228.366 288.939C227.206 288.288 226.29 287.406 225.625 286.28C224.974 285.161 224.648 283.893 224.648 282.482C224.648 281.091 224.974 279.836 225.625 278.71C226.29 277.571 227.206 276.689 228.366 276.051C229.539 275.42 230.848 275.102 232.3 275.102C233.439 275.102 234.47 275.291 235.393 275.671C236.329 276.038 237.136 276.594 237.808 277.354L236.451 278.656C235.366 277.503 234.009 276.919 232.381 276.919C231.31 276.919 230.346 277.164 229.478 277.652C228.61 278.14 227.931 278.812 227.443 279.66C226.955 280.494 226.711 281.437 226.711 282.482C226.711 283.533 226.955 284.483 227.443 285.331C227.931 286.185 228.61 286.85 229.478 287.338C230.346 287.813 231.31 288.044 232.381 288.044C233.989 288.044 235.345 287.467 236.451 286.307L237.808 287.61C237.136 288.356 236.329 288.926 235.393 289.319C234.45 289.699 233.419 289.889 232.3 289.889Z" fill="#3C0366"/>
<path d="M253.55 286.117H245.844L244.271 289.725H242.127L248.693 275.264H250.728L257.321 289.725H255.151L253.55 286.117ZM252.817 284.462L249.697 277.353L246.577 284.462H252.817Z" fill="#3C0366"/>
<path d="M272.707 289.725L269.587 285.276C269.187 285.316 268.882 285.33 268.665 285.33H265.083V289.725H263.021V275.264H268.665C270.544 275.264 272.015 275.718 273.087 276.62C274.173 277.509 274.715 278.737 274.715 280.31C274.715 281.416 274.43 282.366 273.874 283.159C273.331 283.939 272.545 284.509 271.514 284.869L274.959 289.725H272.707ZM268.61 283.566C269.913 283.566 270.903 283.288 271.595 282.725C272.28 282.149 272.626 281.341 272.626 280.31C272.626 279.266 272.28 278.459 271.595 277.896C270.903 277.339 269.913 277.054 268.61 277.054H265.083V283.566H268.61Z" fill="#3C0366"/>
<path d="M291.653 282.4H293.633V288.044C292.908 288.641 292.067 289.102 291.11 289.428C290.167 289.733 289.184 289.889 288.153 289.889C286.688 289.889 285.365 289.577 284.191 288.939C283.011 288.288 282.089 287.406 281.424 286.28C280.773 285.161 280.447 283.893 280.447 282.482C280.447 281.091 280.773 279.836 281.424 278.71C282.089 277.571 283.011 276.689 284.191 276.051C285.385 275.42 286.715 275.102 288.18 275.102C289.333 275.102 290.384 275.291 291.327 275.671C292.284 276.038 293.091 276.587 293.742 277.326L292.467 278.602C291.307 277.482 289.903 276.919 288.261 276.919C287.156 276.919 286.172 277.164 285.304 277.652C284.436 278.127 283.744 278.785 283.242 279.633C282.753 280.487 282.509 281.437 282.509 282.482C282.509 283.533 282.753 284.483 283.242 285.331C283.744 286.185 284.436 286.85 285.304 287.338C286.172 287.813 287.156 288.044 288.261 288.044C289.543 288.044 290.676 287.739 291.653 287.121V282.4Z" fill="#3C0366"/>
<path d="M307.675 289.889C306.21 289.889 304.887 289.577 303.714 288.939C302.533 288.288 301.611 287.406 300.946 286.28C300.295 285.141 299.969 283.879 299.969 282.482C299.969 281.091 300.295 279.836 300.946 278.71C301.611 277.571 302.533 276.689 303.714 276.051C304.887 275.42 306.21 275.102 307.675 275.102C309.12 275.102 310.422 275.42 311.582 276.051C312.756 276.689 313.671 277.571 314.322 278.71C314.987 279.836 315.326 281.091 315.326 282.482C315.326 283.893 314.987 285.161 314.322 286.28C313.671 287.406 312.756 288.288 311.582 288.939C310.422 289.577 309.12 289.889 307.675 289.889ZM307.675 288.044C308.72 288.044 309.669 287.813 310.524 287.338C311.372 286.85 312.043 286.185 312.532 285.331C313.02 284.483 313.264 283.533 313.264 282.482C313.264 281.437 313.02 280.494 312.532 279.66C312.043 278.812 311.372 278.14 310.524 277.652C309.669 277.164 308.72 276.919 307.675 276.919C306.603 276.919 305.64 277.164 304.772 277.652C303.917 278.14 303.252 278.812 302.764 279.66C302.276 280.494 302.031 281.437 302.031 282.482C302.031 283.533 302.276 284.483 302.764 285.331C303.252 286.185 303.917 286.85 304.772 287.338C305.64 287.813 306.603 288.044 307.675 288.044Z" fill="#3C0366"/>
<mask id="mask0_6053_190635" style="mask-type:luminance" maskUnits="userSpaceOnUse" x="27" y="180" width="342" height="10">
<path d="M27.3674 180.881H368.038V189.014H27.3674V180.881Z" fill="white"/>
</mask>
<g mask="url(#mask0_6053_190635)">
<path fill-rule="evenodd" clip-rule="evenodd" d="M352.811 189.014H368.039L364.077 181.396H356.874C355.917 184.883 354.479 187.576 352.811 189.014ZM331.389 189.014H335.012C334.36 188.465 333.784 187.712 333.2 186.823C332.651 187.712 332.04 188.465 331.389 189.014ZM304.236 189.014H313.631C311.956 187.576 310.517 184.883 309.527 181.396H307.689C306.868 184.883 305.674 187.576 304.236 189.014ZM282.55 189.014H289.205C287.875 187.651 286.715 185.154 285.895 181.939C285.074 185.154 283.914 187.651 282.55 189.014ZM253.688 189.014H267.519C266.081 187.576 264.887 184.883 264.066 181.396H258.023C256.93 184.883 255.425 187.576 253.688 189.014ZM170.106 189.014H234.526C232.748 187.576 231.243 184.883 230.151 181.396H176.048C174.413 184.849 172.358 187.474 170.106 189.014ZM78.4654 189.014H138.992C136.733 187.474 134.718 184.849 133.049 181.396H83.6545C82.1893 184.849 80.446 187.474 78.4654 189.014ZM27.5034 189.014H51.2784C49.2977 187.474 47.5205 184.849 46.0825 181.396H33.0724L27.5034 189.014Z" fill="#3C0366"/>
</g>
<mask id="mask1_6053_190635" style="mask-type:luminance" maskUnits="userSpaceOnUse" x="21" y="0" width="333" height="184">
<path d="M21.3918 0.271484H353.828V183.18H21.3918V0.271484Z" fill="white"/>
</mask>
<g mask="url(#mask1_6053_190635)">
<path fill-rule="evenodd" clip-rule="evenodd" d="M67.7751 99.0401H71.1192L73.378 137.229L67.7751 149.663V99.0401ZM93.463 99.0401H96.7732L99.0591 137.229L93.463 149.663V99.0401ZM80.2426 99.0401H83.5528L85.8455 137.229L80.2426 149.663V99.0401ZM44.7531 137.06H54.7582V146.244H40.1744V141.638C40.1744 139.108 42.2229 137.06 44.7531 137.06ZM165.29 136.103C169.082 136.103 172.155 145.6 172.155 157.28C172.155 168.995 169.082 178.491 165.29 178.491C161.498 178.491 158.425 168.995 158.425 157.28C158.425 145.6 161.498 136.103 165.29 136.103ZM140.837 166.98L31.0239 167.421L29.1789 177.196H27.6391L21.7988 159.499H141.006L140.837 166.98ZM130.621 137.06H148.759V146.244H126.009V141.638C126.009 139.108 128.091 137.06 130.621 137.06ZM222.364 163.534H197.605L198.283 171.864H222.364V163.534ZM327.021 157.213C329.51 157.213 331.525 162.849 331.525 169.816C331.525 176.782 329.51 182.419 327.021 182.419C324.525 182.419 322.51 176.782 322.51 169.816C322.51 162.849 324.525 157.213 327.021 157.213ZM268.543 161.377L303.795 163.426V173.574H268.543V161.377ZM249.381 152.634C252.352 152.634 254.746 159.295 254.746 167.523C254.746 175.758 252.352 182.419 249.381 182.419C246.444 182.419 244.022 175.758 244.022 167.523C244.022 159.295 246.444 152.634 249.381 152.634ZM348.266 158.678C350.721 158.678 352.702 164.009 352.702 170.569C352.702 177.121 350.721 182.419 348.266 182.419C345.804 182.419 343.823 177.121 343.823 170.569C343.823 164.009 345.804 158.678 348.266 158.678ZM105.211 56.313V15.1256L105.272 14.7796C105.829 11.2931 107.599 7.60984 110.502 4.84231C112.999 2.41394 116.343 0.670664 120.44 0.263672L121.125 7.39956C118.805 7.60984 116.892 8.6341 115.454 9.99752C113.819 11.5712 112.788 13.6197 112.415 15.5665V42.3125L105.211 56.313ZM188.346 86.2674H193.094C195.177 86.2674 196.92 87.9768 196.92 90.0932V102.73L202.346 104.202L206.179 138.118V105.226L206.206 105.26L205.867 68.95L186.365 63.6591L177.927 97.6089L184.486 99.3861V90.0932C184.486 87.9768 186.23 86.2674 188.346 86.2674ZM182.777 53.5115L206.382 28.5088L139.711 32.5108L119.524 50.5066L139.466 25.8498L222.703 21.2033V149.324H180.077C178.266 135.764 172.433 125.82 165.493 125.82H127.548C120.853 128.316 114.844 133.234 110.095 142.731V92.6233C93.524 87.9429 74.911 87.6648 58.3126 92.6233V131.762H39.1841C32.0821 135.69 28.7651 142.317 25.6245 149.459C28.019 141.055 30.99 130.84 38.6414 125.82H53.6322V89.754C68.969 80.0201 94.6229 77.7274 111.628 81.3157L169.563 93.5458L177.893 62.3636H122.013C120.27 62.3296 118.941 62.9062 118.086 64.1679L113.819 75.9502L109.376 74.9938C108.861 74.8921 108.318 74.7903 107.803 74.6886C109.783 68.95 111.764 63.1775 113.745 57.4458C114.64 55.8721 116.207 54.9496 119.178 55.187L182.777 53.5115Z" fill="#3C0366"/>
</g>
<path fill-rule="evenodd" clip-rule="evenodd" d="M130.417 14.0609L130.004 28.3056L135.607 20.4167L234.729 14.4069V141.503L360.903 150.382V141.293L244.395 127.733V109.771L360.903 133.065V122.578L244.395 93.1662V78.2432L360.903 115.747V104.135L244.395 53.9256V44.8022L360.903 98.4299V85.0061L233.773 5.69727L130.417 14.0609Z" fill="#3C0366"/>
</svg>
