<svg width="34" height="34" viewBox="0 0 34 34" fill="none" xmlns="http://www.w3.org/2000/svg">
<path d="M13.7021 13.5993C13.9685 12.8419 14.4945 12.2032 15.1867 11.7964C15.8789 11.3895 16.6928 11.2408 17.4842 11.3766C18.2756 11.5123 18.9934 11.9237 19.5105 12.538C20.0276 13.1523 20.3106 13.9297 20.3094 14.7327C20.3094 16.9993 16.9094 18.1327 16.9094 18.1327M17.0001 22.666H17.0114M28.3334 16.9993C28.3334 23.2586 23.2593 28.3327 17.0001 28.3327C10.7409 28.3327 5.66675 23.2586 5.66675 16.9993C5.66675 10.7401 10.7409 5.66602 17.0001 5.66602C23.2593 5.66602 28.3334 10.7401 28.3334 16.9993Z" stroke="white" stroke-width="2.125" stroke-linecap="round" stroke-linejoin="round"/>
</svg>
