<svg width="24" height="24" viewBox="0 0 24 24" fill="none" xmlns="http://www.w3.org/2000/svg">
<path d="M11.9991 3C11.3768 3 10.8741 3.50273 10.8741 4.125V4.8C8.30768 5.32031 6.37408 7.59141 6.37408 10.3125V10.9734C6.37408 12.6258 5.76588 14.2219 4.669 15.4594L4.40885 15.7512C4.11354 16.0816 4.04322 16.5563 4.22252 16.9605C4.40182 17.3648 4.80611 17.625 5.24908 17.625H18.7491C19.1921 17.625 19.5928 17.3648 19.7756 16.9605C19.9585 16.5563 19.8846 16.0816 19.5893 15.7512L19.3292 15.4594C18.2323 14.2219 17.6241 12.6293 17.6241 10.9734V10.3125C17.6241 7.59141 15.6905 5.32031 13.1241 4.8V4.125C13.1241 3.50273 12.6213 3 11.9991 3ZM13.5917 20.3426C14.0135 19.9207 14.2491 19.3477 14.2491 18.75H11.9991H9.74908C9.74908 19.3477 9.98463 19.9207 10.4065 20.3426C10.8284 20.7645 11.4014 21 11.9991 21C12.5967 21 13.1698 20.7645 13.5917 20.3426Z" fill="#475467"/>
</svg>
