<svg width="25" height="32" viewBox="0 0 25 32" fill="none" xmlns="http://www.w3.org/2000/svg">
<path d="M2.16333 0C1.05708 0 0.16333 0.89375 0.16333 2C0.16333 3.10625 1.05708 4 2.16333 4V4.6875C2.16333 7.3375 3.21958 9.88125 5.09458 11.7563L9.33208 16L5.09458 20.2437C3.21958 22.1187 2.16333 24.6625 2.16333 27.3125V28C1.05708 28 0.16333 28.8937 0.16333 30C0.16333 31.1063 1.05708 32 2.16333 32H4.16333H20.1633H22.1633C23.2696 32 24.1633 31.1063 24.1633 30C24.1633 28.8937 23.2696 28 22.1633 28V27.3125C22.1633 24.6625 21.1071 22.1187 19.2321 20.2437L14.9946 16L19.2383 11.7563C21.1133 9.88125 22.1696 7.3375 22.1696 4.6875V4C23.2758 4 24.1696 3.10625 24.1696 2C24.1696 0.89375 23.2758 0 22.1696 0H20.1633H4.16333H2.16333ZM18.1633 27.3125V28H6.16333V27.3125C6.16333 25.7188 6.79458 24.1938 7.91958 23.0688L12.1633 18.8312L16.4071 23.075C17.5321 24.2 18.1633 25.725 18.1633 27.3188V27.3125Z" fill="#F79009"/>
</svg>
