<svg width="47" height="46" viewBox="0 0 47 46" fill="none" xmlns="http://www.w3.org/2000/svg">
<path d="M25.8896 12.5582C25.8896 13.7025 24.9626 14.6296 23.8182 14.6296C22.6739 14.6296 21.7468 13.7025 21.7468 12.5582C21.7468 11.4139 22.6739 10.4868 23.8182 10.4868V8.19727" stroke="#267FEC" stroke-width="0.855989" stroke-miterlimit="10" stroke-linecap="round" stroke-linejoin="round"/>
<path d="M12.0447 18.5509L20.2373 14.6289" stroke="#267FEC" stroke-width="2.875" stroke-miterlimit="10" stroke-linecap="round" stroke-linejoin="round"/>
<path d="M35.5952 18.5513L27.5876 14.7188" stroke="#267FEC" stroke-width="2.875" stroke-miterlimit="10" stroke-linecap="round" stroke-linejoin="round"/>
<path d="M38.2208 20.5586H9.44552C9.22739 20.5586 9.05127 20.7347 9.05127 20.9528V37.4088C9.05127 37.6269 9.22739 37.803 9.44552 37.803H38.2208C38.4389 37.803 38.615 37.6269 38.615 37.4088V20.9528C38.615 20.7347 38.438 20.5586 38.2208 20.5586Z" stroke="#267FEC" stroke-width="2.875" stroke-miterlimit="10" stroke-linecap="round" stroke-linejoin="round"/>
<path d="M28.7639 34.8864V23.4727" stroke="#267FEC" stroke-width="0.78716" stroke-miterlimit="10" stroke-linecap="round" stroke-linejoin="round"/>
<path d="M28.7639 34.8864V23.4727" stroke="#267FEC" stroke-width="1.91667" stroke-miterlimit="10" stroke-linecap="round" stroke-linejoin="round"/>
<path d="M18.9055 34.8864V23.4727" stroke="#267FEC" stroke-width="1.91667" stroke-miterlimit="10" stroke-linecap="round" stroke-linejoin="round"/>
</svg>
