<svg xmlns="http://www.w3.org/2000/svg" xmlns:xlink="http://www.w3.org/1999/xlink" width="500" zoomAndPan="magnify" viewBox="0 0 375 374.999991" height="500" preserveAspectRatio="xMidYMid meet" version="1.2"><defs><clipPath id="b8df917818"><path d="M 91 206.675781 L 287.183594 206.675781 L 287.183594 211.359375 L 91 211.359375 Z M 91 206.675781 "/></clipPath><clipPath id="f4d818e1a5"><path d="M 87.558594 102.667969 L 279 102.667969 L 279 208 L 87.558594 208 Z M 87.558594 102.667969 "/></clipPath></defs><g id="c42873a8ea"><g style="fill:#ffffff;fill-opacity:1;"><g transform="translate(71.364663, 252.489971)"><path style="stroke:none" d="M 22.484375 0 L 15.90625 -11.546875 L 11.21875 -11.546875 L 11.21875 0 L 3.875 0 L 3.875 -33.84375 L 17.546875 -33.84375 C 19.804688 -33.84375 21.820312 -33.359375 23.59375 -32.390625 C 25.363281 -31.421875 26.765625 -30.097656 27.796875 -28.421875 C 28.828125 -26.742188 29.34375 -24.8125 29.34375 -22.625 C 29.34375 -20.4375 28.785156 -18.476562 27.671875 -16.75 C 26.566406 -15.03125 25.078125 -13.71875 23.203125 -12.8125 L 30.703125 0 Z M 11.21875 -27.078125 L 11.21875 -18.328125 L 17.0625 -18.328125 C 18.582031 -18.328125 19.773438 -18.734375 20.640625 -19.546875 C 21.515625 -20.367188 21.953125 -21.410156 21.953125 -22.671875 C 21.953125 -23.960938 21.515625 -25.019531 20.640625 -25.84375 C 19.773438 -26.664062 18.582031 -27.078125 17.0625 -27.078125 Z M 11.21875 -27.078125 "/></g></g><g style="fill:#ffffff;fill-opacity:1;"><g transform="translate(102.348989, 252.489971)"><path style="stroke:none" d="M 3.875 0 L 3.875 -33.84375 L 11.21875 -33.84375 L 11.21875 0 Z M 3.875 0 "/></g></g><g style="fill:#ffffff;fill-opacity:1;"><g transform="translate(116.46347, 252.489971)"><path style="stroke:none" d="M 45.34375 0 L 37.90625 0 L 34.5625 -22.09375 L 24.46875 -0.046875 L 22.671875 -0.046875 L 12.5625 -22.09375 L 9.234375 0 L 1.734375 0 L 7.0625 -33.84375 L 14.40625 -33.84375 L 23.546875 -13.09375 L 32.734375 -33.84375 L 40.078125 -33.84375 Z M 45.34375 0 "/></g></g><g style="fill:#ffffff;fill-opacity:1;"><g transform="translate(162.625826, 252.489971)"><path style="stroke:none" d="M 24.21875 -17.84375 C 25.695312 -17.0625 26.847656 -15.96875 27.671875 -14.5625 C 28.492188 -13.164062 28.90625 -11.566406 28.90625 -9.765625 C 28.90625 -7.960938 28.429688 -6.316406 27.484375 -4.828125 C 26.535156 -3.347656 25.242188 -2.171875 23.609375 -1.296875 C 21.984375 -0.429688 20.207031 0 18.28125 0 L 3.875 0 L 3.875 -33.84375 L 17.890625 -33.84375 C 19.816406 -33.84375 21.546875 -33.460938 23.078125 -32.703125 C 24.609375 -31.941406 25.816406 -30.898438 26.703125 -29.578125 C 27.597656 -28.265625 28.046875 -26.785156 28.046875 -25.140625 C 28.046875 -23.691406 27.707031 -22.320312 27.03125 -21.03125 C 26.351562 -19.738281 25.414062 -18.675781 24.21875 -17.84375 Z M 20.9375 -23.984375 C 20.9375 -25.046875 20.597656 -25.914062 19.921875 -26.59375 C 19.242188 -27.269531 18.320312 -27.609375 17.15625 -27.609375 L 11.078125 -27.609375 L 11.078125 -20.40625 L 17.15625 -20.40625 C 18.320312 -20.40625 19.242188 -20.742188 19.921875 -21.421875 C 20.597656 -22.097656 20.9375 -22.953125 20.9375 -23.984375 Z M 17.546875 -6.71875 C 18.773438 -6.71875 19.75 -7.070312 20.46875 -7.78125 C 21.195312 -8.488281 21.5625 -9.40625 21.5625 -10.53125 C 21.5625 -11.632812 21.195312 -12.539062 20.46875 -13.25 C 19.75 -13.957031 18.773438 -14.3125 17.546875 -14.3125 L 11.078125 -14.3125 L 11.078125 -6.71875 Z M 17.546875 -6.71875 "/></g></g><g style="fill:#ffffff;fill-opacity:1;"><g transform="translate(192.691733, 252.489971)"><path style="stroke:none" d="M 11.21875 -6.8125 L 24.703125 -6.8125 L 24.703125 0 L 3.875 0 L 3.875 -33.84375 L 24.171875 -33.84375 L 24.171875 -27.078125 L 11.21875 -27.078125 L 11.21875 -20.40625 L 22.921875 -20.40625 L 22.921875 -13.78125 L 11.21875 -13.78125 Z M 11.21875 -6.8125 "/></g></g><g style="fill:#ffffff;fill-opacity:1;"><g transform="translate(218.745621, 252.489971)"><path style="stroke:none" d="M 22.484375 0 L 15.90625 -11.546875 L 11.21875 -11.546875 L 11.21875 0 L 3.875 0 L 3.875 -33.84375 L 17.546875 -33.84375 C 19.804688 -33.84375 21.820312 -33.359375 23.59375 -32.390625 C 25.363281 -31.421875 26.765625 -30.097656 27.796875 -28.421875 C 28.828125 -26.742188 29.34375 -24.8125 29.34375 -22.625 C 29.34375 -20.4375 28.785156 -18.476562 27.671875 -16.75 C 26.566406 -15.03125 25.078125 -13.71875 23.203125 -12.8125 L 30.703125 0 Z M 11.21875 -27.078125 L 11.21875 -18.328125 L 17.0625 -18.328125 C 18.582031 -18.328125 19.773438 -18.734375 20.640625 -19.546875 C 21.515625 -20.367188 21.953125 -21.410156 21.953125 -22.671875 C 21.953125 -23.960938 21.515625 -25.019531 20.640625 -25.84375 C 19.773438 -26.664062 18.582031 -27.078125 17.0625 -27.078125 Z M 11.21875 -27.078125 "/></g></g><g style="fill:#ffffff;fill-opacity:1;"><g transform="translate(249.729946, 252.489971)"><path style="stroke:none" d="M 3.875 0 L 3.875 -33.84375 L 11.21875 -33.84375 L 11.21875 0 Z M 3.875 0 "/></g></g><g style="fill:#ffffff;fill-opacity:1;"><g transform="translate(263.844427, 252.489971)"><path style="stroke:none" d="M 19.921875 0.71875 C 17.335938 0.71875 14.945312 0.273438 12.75 -0.609375 C 10.5625 -1.492188 8.65625 -2.734375 7.03125 -4.328125 C 5.40625 -5.921875 4.140625 -7.789062 3.234375 -9.9375 C 2.335938 -12.082031 1.890625 -14.410156 1.890625 -16.921875 C 1.890625 -19.429688 2.335938 -21.757812 3.234375 -23.90625 C 4.140625 -26.050781 5.40625 -27.921875 7.03125 -29.515625 C 8.65625 -31.109375 10.5625 -32.347656 12.75 -33.234375 C 14.945312 -34.117188 17.335938 -34.5625 19.921875 -34.5625 C 22.492188 -34.5625 24.875 -34.117188 27.0625 -33.234375 C 29.257812 -32.347656 31.160156 -31.109375 32.765625 -29.515625 C 34.378906 -27.921875 35.640625 -26.050781 36.546875 -23.90625 C 37.453125 -21.757812 37.90625 -19.429688 37.90625 -16.921875 C 37.90625 -14.410156 37.453125 -12.082031 36.546875 -9.9375 C 35.640625 -7.789062 34.378906 -5.921875 32.765625 -4.328125 C 31.160156 -2.734375 29.257812 -1.492188 27.0625 -0.609375 C 24.875 0.273438 22.492188 0.71875 19.921875 0.71875 Z M 19.921875 -6.1875 C 21.953125 -6.1875 23.765625 -6.648438 25.359375 -7.578125 C 26.953125 -8.515625 28.207031 -9.789062 29.125 -11.40625 C 30.039062 -13.019531 30.5 -14.859375 30.5 -16.921875 C 30.5 -18.953125 30.039062 -20.78125 29.125 -22.40625 C 28.207031 -24.03125 26.953125 -25.3125 25.359375 -26.25 C 23.765625 -27.1875 21.953125 -27.65625 19.921875 -27.65625 C 17.921875 -27.65625 16.113281 -27.1875 14.5 -26.25 C 12.882812 -25.3125 11.609375 -24.03125 10.671875 -22.40625 C 9.742188 -20.78125 9.28125 -18.953125 9.28125 -16.921875 C 9.28125 -14.890625 9.742188 -13.054688 10.671875 -11.421875 C 11.609375 -9.796875 12.882812 -8.515625 14.5 -7.578125 C 16.113281 -6.648438 17.921875 -6.1875 19.921875 -6.1875 Z M 19.921875 -6.1875 "/></g></g><g style="fill:#ffffff;fill-opacity:1;"><g transform="translate(117.575264, 269.357267)"><path style="stroke:none" d="M 2.90625 -7.296875 L 0.046875 -7.296875 L 0.046875 -8.328125 L 6.9375 -8.328125 L 6.9375 -7.296875 L 4.078125 -7.296875 L 4.078125 0 L 2.90625 0 Z M 2.90625 -7.296875 "/></g></g><g style="fill:#ffffff;fill-opacity:1;"><g transform="translate(126.617092, 269.357267)"><path style="stroke:none" d="M 6.828125 0 L 5.03125 -2.5625 C 4.800781 -2.539062 4.625 -2.53125 4.5 -2.53125 L 2.4375 -2.53125 L 2.4375 0 L 1.25 0 L 1.25 -8.328125 L 4.5 -8.328125 C 5.582031 -8.328125 6.429688 -8.066406 7.046875 -7.546875 C 7.671875 -7.035156 7.984375 -6.328125 7.984375 -5.421875 C 7.984375 -4.785156 7.820312 -4.238281 7.5 -3.78125 C 7.1875 -3.332031 6.734375 -3.003906 6.140625 -2.796875 L 8.125 0 Z M 4.46875 -3.546875 C 5.21875 -3.546875 5.789062 -3.707031 6.1875 -4.03125 C 6.582031 -4.363281 6.78125 -4.828125 6.78125 -5.421875 C 6.78125 -6.023438 6.582031 -6.488281 6.1875 -6.8125 C 5.789062 -7.132812 5.21875 -7.296875 4.46875 -7.296875 L 2.4375 -7.296875 L 2.4375 -3.546875 Z M 4.46875 -3.546875 "/></g></g><g style="fill:#ffffff;fill-opacity:1;"><g transform="translate(137.324149, 269.357267)"><path style="stroke:none" d="M 4.703125 0.09375 C 3.585938 0.09375 2.71875 -0.222656 2.09375 -0.859375 C 1.476562 -1.492188 1.171875 -2.40625 1.171875 -3.59375 L 1.171875 -8.328125 L 2.375 -8.328125 L 2.375 -3.640625 C 2.375 -1.859375 3.15625 -0.96875 4.71875 -0.96875 C 5.476562 -0.96875 6.0625 -1.1875 6.46875 -1.625 C 6.875 -2.0625 7.078125 -2.734375 7.078125 -3.640625 L 7.078125 -8.328125 L 8.234375 -8.328125 L 8.234375 -3.59375 C 8.234375 -2.394531 7.921875 -1.476562 7.296875 -0.84375 C 6.679688 -0.21875 5.816406 0.09375 4.703125 0.09375 Z M 4.703125 0.09375 "/></g></g><g style="fill:#ffffff;fill-opacity:1;"><g transform="translate(148.792456, 269.357267)"><path style="stroke:none" d="M 4.984375 0.09375 C 4.148438 0.09375 3.394531 -0.0859375 2.71875 -0.453125 C 2.050781 -0.828125 1.523438 -1.335938 1.140625 -1.984375 C 0.765625 -2.628906 0.578125 -3.359375 0.578125 -4.171875 C 0.578125 -4.972656 0.765625 -5.695312 1.140625 -6.34375 C 1.523438 -7 2.050781 -7.507812 2.71875 -7.875 C 3.394531 -8.238281 4.148438 -8.421875 4.984375 -8.421875 C 5.640625 -8.421875 6.234375 -8.3125 6.765625 -8.09375 C 7.304688 -7.882812 7.769531 -7.5625 8.15625 -7.125 L 7.375 -6.375 C 6.75 -7.039062 5.96875 -7.375 5.03125 -7.375 C 4.414062 -7.375 3.859375 -7.234375 3.359375 -6.953125 C 2.859375 -6.671875 2.46875 -6.285156 2.1875 -5.796875 C 1.90625 -5.316406 1.765625 -4.773438 1.765625 -4.171875 C 1.765625 -3.566406 1.90625 -3.019531 2.1875 -2.53125 C 2.46875 -2.039062 2.859375 -1.65625 3.359375 -1.375 C 3.859375 -1.101562 4.414062 -0.96875 5.03125 -0.96875 C 5.957031 -0.96875 6.738281 -1.300781 7.375 -1.96875 L 8.15625 -1.21875 C 7.769531 -0.789062 7.304688 -0.460938 6.765625 -0.234375 C 6.222656 -0.015625 5.628906 0.09375 4.984375 0.09375 Z M 4.984375 0.09375 "/></g></g><g style="fill:#ffffff;fill-opacity:1;"><g transform="translate(159.45194, 269.357267)"><path style="stroke:none" d="M 3.96875 -3.703125 L 2.4375 -2.15625 L 2.4375 0 L 1.25 0 L 1.25 -8.328125 L 2.4375 -8.328125 L 2.4375 -3.671875 L 6.96875 -8.328125 L 8.328125 -8.328125 L 4.765625 -4.578125 L 8.546875 0 L 7.15625 0 Z M 3.96875 -3.703125 "/></g></g><g style="fill:#ffffff;fill-opacity:1;"><g transform="translate(170.063839, 269.357267)"><path style="stroke:none" d="M 1.25 -8.328125 L 2.4375 -8.328125 L 2.4375 0 L 1.25 0 Z M 1.25 -8.328125 "/></g></g><g style="fill:#ffffff;fill-opacity:1;"><g transform="translate(175.810879, 269.357267)"><path style="stroke:none" d="M 8.421875 -8.328125 L 8.421875 0 L 7.4375 0 L 2.4375 -6.21875 L 2.4375 0 L 1.25 0 L 1.25 -8.328125 L 2.21875 -8.328125 L 7.234375 -2.125 L 7.234375 -8.328125 Z M 8.421875 -8.328125 "/></g></g><g style="fill:#ffffff;fill-opacity:1;"><g transform="translate(187.528976, 269.357267)"><path style="stroke:none" d="M 7.03125 -4.21875 L 8.171875 -4.21875 L 8.171875 -0.96875 C 7.753906 -0.625 7.269531 -0.359375 6.71875 -0.171875 C 6.175781 0.00390625 5.609375 0.09375 5.015625 0.09375 C 4.171875 0.09375 3.410156 -0.0859375 2.734375 -0.453125 C 2.054688 -0.828125 1.523438 -1.335938 1.140625 -1.984375 C 0.765625 -2.628906 0.578125 -3.359375 0.578125 -4.171875 C 0.578125 -4.972656 0.765625 -5.695312 1.140625 -6.34375 C 1.523438 -7 2.054688 -7.507812 2.734375 -7.875 C 3.421875 -8.238281 4.1875 -8.421875 5.03125 -8.421875 C 5.695312 -8.421875 6.300781 -8.3125 6.84375 -8.09375 C 7.394531 -7.882812 7.859375 -7.566406 8.234375 -7.140625 L 7.5 -6.40625 C 6.832031 -7.050781 6.023438 -7.375 5.078125 -7.375 C 4.441406 -7.375 3.875 -7.234375 3.375 -6.953125 C 2.875 -6.679688 2.476562 -6.300781 2.1875 -5.8125 C 1.90625 -5.320312 1.765625 -4.773438 1.765625 -4.171875 C 1.765625 -3.566406 1.90625 -3.019531 2.1875 -2.53125 C 2.476562 -2.039062 2.875 -1.65625 3.375 -1.375 C 3.875 -1.101562 4.441406 -0.96875 5.078125 -0.96875 C 5.816406 -0.96875 6.46875 -1.144531 7.03125 -1.5 Z M 7.03125 -4.21875 "/></g></g><g style="fill:#ffffff;fill-opacity:1;"><g transform="translate(198.771285, 269.357267)"><path style="stroke:none" d=""/></g></g><g style="fill:#ffffff;fill-opacity:1;"><g transform="translate(204.030657, 269.357267)"><path style="stroke:none" d="M 4.984375 0.09375 C 4.148438 0.09375 3.394531 -0.0859375 2.71875 -0.453125 C 2.050781 -0.828125 1.523438 -1.335938 1.140625 -1.984375 C 0.765625 -2.628906 0.578125 -3.359375 0.578125 -4.171875 C 0.578125 -4.972656 0.765625 -5.695312 1.140625 -6.34375 C 1.523438 -7 2.050781 -7.507812 2.71875 -7.875 C 3.394531 -8.238281 4.148438 -8.421875 4.984375 -8.421875 C 5.640625 -8.421875 6.234375 -8.3125 6.765625 -8.09375 C 7.304688 -7.882812 7.769531 -7.5625 8.15625 -7.125 L 7.375 -6.375 C 6.75 -7.039062 5.96875 -7.375 5.03125 -7.375 C 4.414062 -7.375 3.859375 -7.234375 3.359375 -6.953125 C 2.859375 -6.671875 2.46875 -6.285156 2.1875 -5.796875 C 1.90625 -5.316406 1.765625 -4.773438 1.765625 -4.171875 C 1.765625 -3.566406 1.90625 -3.019531 2.1875 -2.53125 C 2.46875 -2.039062 2.859375 -1.65625 3.359375 -1.375 C 3.859375 -1.101562 4.414062 -0.96875 5.03125 -0.96875 C 5.957031 -0.96875 6.738281 -1.300781 7.375 -1.96875 L 8.15625 -1.21875 C 7.769531 -0.789062 7.304688 -0.460938 6.765625 -0.234375 C 6.222656 -0.015625 5.628906 0.09375 4.984375 0.09375 Z M 4.984375 0.09375 "/></g></g><g style="fill:#ffffff;fill-opacity:1;"><g transform="translate(214.690141, 269.357267)"><path style="stroke:none" d="M 6.5625 -2.078125 L 2.125 -2.078125 L 1.21875 0 L -0.015625 0 L 3.765625 -8.328125 L 4.9375 -8.328125 L 8.734375 0 L 7.484375 0 Z M 6.140625 -3.03125 L 4.34375 -7.125 L 2.546875 -3.03125 Z M 6.140625 -3.03125 "/></g></g><g style="fill:#ffffff;fill-opacity:1;"><g transform="translate(225.456673, 269.357267)"><path style="stroke:none" d="M 6.828125 0 L 5.03125 -2.5625 C 4.800781 -2.539062 4.625 -2.53125 4.5 -2.53125 L 2.4375 -2.53125 L 2.4375 0 L 1.25 0 L 1.25 -8.328125 L 4.5 -8.328125 C 5.582031 -8.328125 6.429688 -8.066406 7.046875 -7.546875 C 7.671875 -7.035156 7.984375 -6.328125 7.984375 -5.421875 C 7.984375 -4.785156 7.820312 -4.238281 7.5 -3.78125 C 7.1875 -3.332031 6.734375 -3.003906 6.140625 -2.796875 L 8.125 0 Z M 4.46875 -3.546875 C 5.21875 -3.546875 5.789062 -3.707031 6.1875 -4.03125 C 6.582031 -4.363281 6.78125 -4.828125 6.78125 -5.421875 C 6.78125 -6.023438 6.582031 -6.488281 6.1875 -6.8125 C 5.789062 -7.132812 5.21875 -7.296875 4.46875 -7.296875 L 2.4375 -7.296875 L 2.4375 -3.546875 Z M 4.46875 -3.546875 "/></g></g><g style="fill:#ffffff;fill-opacity:1;"><g transform="translate(236.163731, 269.357267)"><path style="stroke:none" d="M 7.03125 -4.21875 L 8.171875 -4.21875 L 8.171875 -0.96875 C 7.753906 -0.625 7.269531 -0.359375 6.71875 -0.171875 C 6.175781 0.00390625 5.609375 0.09375 5.015625 0.09375 C 4.171875 0.09375 3.410156 -0.0859375 2.734375 -0.453125 C 2.054688 -0.828125 1.523438 -1.335938 1.140625 -1.984375 C 0.765625 -2.628906 0.578125 -3.359375 0.578125 -4.171875 C 0.578125 -4.972656 0.765625 -5.695312 1.140625 -6.34375 C 1.523438 -7 2.054688 -7.507812 2.734375 -7.875 C 3.421875 -8.238281 4.1875 -8.421875 5.03125 -8.421875 C 5.695312 -8.421875 6.300781 -8.3125 6.84375 -8.09375 C 7.394531 -7.882812 7.859375 -7.566406 8.234375 -7.140625 L 7.5 -6.40625 C 6.832031 -7.050781 6.023438 -7.375 5.078125 -7.375 C 4.441406 -7.375 3.875 -7.234375 3.375 -6.953125 C 2.875 -6.679688 2.476562 -6.300781 2.1875 -5.8125 C 1.90625 -5.320312 1.765625 -4.773438 1.765625 -4.171875 C 1.765625 -3.566406 1.90625 -3.019531 2.1875 -2.53125 C 2.476562 -2.039062 2.875 -1.65625 3.375 -1.375 C 3.875 -1.101562 4.441406 -0.96875 5.078125 -0.96875 C 5.816406 -0.96875 6.46875 -1.144531 7.03125 -1.5 Z M 7.03125 -4.21875 "/></g></g><g style="fill:#ffffff;fill-opacity:1;"><g transform="translate(247.406039, 269.357267)"><path style="stroke:none" d="M 5.015625 0.09375 C 4.171875 0.09375 3.410156 -0.0859375 2.734375 -0.453125 C 2.054688 -0.828125 1.523438 -1.335938 1.140625 -1.984375 C 0.765625 -2.640625 0.578125 -3.367188 0.578125 -4.171875 C 0.578125 -4.972656 0.765625 -5.695312 1.140625 -6.34375 C 1.523438 -7 2.054688 -7.507812 2.734375 -7.875 C 3.410156 -8.238281 4.171875 -8.421875 5.015625 -8.421875 C 5.847656 -8.421875 6.597656 -8.238281 7.265625 -7.875 C 7.941406 -7.507812 8.46875 -7 8.84375 -6.34375 C 9.226562 -5.695312 9.421875 -4.972656 9.421875 -4.171875 C 9.421875 -3.359375 9.226562 -2.628906 8.84375 -1.984375 C 8.46875 -1.335938 7.941406 -0.828125 7.265625 -0.453125 C 6.597656 -0.0859375 5.847656 0.09375 5.015625 0.09375 Z M 5.015625 -0.96875 C 5.617188 -0.96875 6.164062 -1.101562 6.65625 -1.375 C 7.144531 -1.65625 7.53125 -2.039062 7.8125 -2.53125 C 8.09375 -3.019531 8.234375 -3.566406 8.234375 -4.171875 C 8.234375 -4.773438 8.09375 -5.316406 7.8125 -5.796875 C 7.53125 -6.285156 7.144531 -6.671875 6.65625 -6.953125 C 6.164062 -7.234375 5.617188 -7.375 5.015625 -7.375 C 4.398438 -7.375 3.84375 -7.234375 3.34375 -6.953125 C 2.851562 -6.671875 2.46875 -6.285156 2.1875 -5.796875 C 1.90625 -5.316406 1.765625 -4.773438 1.765625 -4.171875 C 1.765625 -3.566406 1.90625 -3.019531 2.1875 -2.53125 C 2.46875 -2.039062 2.851562 -1.65625 3.34375 -1.375 C 3.84375 -1.101562 4.398438 -0.96875 5.015625 -0.96875 Z M 5.015625 -0.96875 "/></g></g><g clip-rule="nonzero" clip-path="url(#b8df917818)"><path style=" stroke:none;fill-rule:evenodd;fill:#ffffff;fill-opacity:1;" d="M 278.414062 211.359375 L 287.183594 211.359375 L 284.902344 206.972656 L 280.753906 206.972656 C 280.203125 208.980469 279.375 210.53125 278.414062 211.359375 Z M 266.078125 211.359375 L 268.164062 211.359375 C 267.789062 211.042969 267.457031 210.609375 267.121094 210.097656 C 266.804688 210.609375 266.453125 211.042969 266.078125 211.359375 Z M 250.441406 211.359375 L 255.851562 211.359375 C 254.886719 210.53125 254.058594 208.980469 253.488281 206.972656 L 252.429688 206.972656 C 251.957031 208.980469 251.269531 210.53125 250.441406 211.359375 Z M 237.953125 211.359375 L 241.785156 211.359375 C 241.019531 210.574219 240.351562 209.136719 239.878906 207.285156 C 239.40625 209.136719 238.738281 210.574219 237.953125 211.359375 Z M 221.332031 211.359375 L 229.296875 211.359375 C 228.46875 210.53125 227.78125 208.980469 227.308594 206.972656 L 223.828125 206.972656 C 223.199219 208.980469 222.332031 210.53125 221.332031 211.359375 Z M 173.199219 211.359375 L 210.296875 211.359375 C 209.273438 210.53125 208.40625 208.980469 207.777344 206.972656 L 176.621094 206.972656 C 175.679688 208.960938 174.496094 210.472656 173.199219 211.359375 Z M 120.425781 211.359375 L 155.28125 211.359375 C 153.980469 210.472656 152.820312 208.960938 151.859375 206.972656 L 123.414062 206.972656 C 122.570312 208.960938 121.566406 210.472656 120.425781 211.359375 Z M 91.078125 211.359375 L 104.769531 211.359375 C 103.628906 210.472656 102.605469 208.960938 101.777344 206.972656 L 94.285156 206.972656 L 91.078125 211.359375 "/></g><g clip-rule="nonzero" clip-path="url(#f4d818e1a5)"><path style=" stroke:none;fill-rule:evenodd;fill:#ffffff;fill-opacity:1;" d="M 114.269531 159.546875 L 116.195312 159.546875 L 117.496094 181.539062 L 114.269531 188.699219 Z M 129.0625 159.546875 L 130.96875 159.546875 L 132.285156 181.539062 L 129.0625 188.699219 Z M 121.449219 159.546875 L 123.355469 159.546875 L 124.675781 181.539062 L 121.449219 188.699219 Z M 101.011719 181.441406 L 106.773438 181.441406 L 106.773438 186.730469 L 98.375 186.730469 L 98.375 184.078125 C 98.375 182.621094 99.554688 181.441406 101.011719 181.441406 Z M 170.425781 180.890625 C 172.609375 180.890625 174.378906 186.359375 174.378906 193.085938 C 174.378906 199.832031 172.609375 205.300781 170.425781 205.300781 C 168.242188 205.300781 166.472656 199.832031 166.472656 193.085938 C 166.472656 186.359375 168.242188 180.890625 170.425781 180.890625 Z M 156.34375 198.671875 L 93.105469 198.925781 L 92.042969 204.554688 L 91.15625 204.554688 L 87.792969 194.363281 L 156.441406 194.363281 Z M 150.460938 181.441406 L 160.90625 181.441406 L 160.90625 186.730469 L 147.804688 186.730469 L 147.804688 184.078125 C 147.804688 182.621094 149.003906 181.441406 150.460938 181.441406 Z M 203.292969 196.6875 L 189.035156 196.6875 L 189.425781 201.484375 L 203.292969 201.484375 Z M 263.5625 193.046875 C 264.996094 193.046875 266.15625 196.292969 266.15625 200.304688 C 266.15625 204.316406 264.996094 207.5625 263.5625 207.5625 C 262.125 207.5625 260.964844 204.316406 260.964844 200.304688 C 260.964844 196.292969 262.125 193.046875 263.5625 193.046875 Z M 229.886719 195.445312 L 250.1875 196.625 L 250.1875 202.46875 L 229.886719 202.46875 Z M 218.851562 190.410156 C 220.5625 190.410156 221.941406 194.246094 221.941406 198.984375 C 221.941406 203.726562 220.5625 207.5625 218.851562 207.5625 C 217.160156 207.5625 215.765625 203.726562 215.765625 198.984375 C 215.765625 194.246094 217.160156 190.410156 218.851562 190.410156 Z M 275.796875 193.890625 C 277.210938 193.890625 278.351562 196.960938 278.351562 200.738281 C 278.351562 204.511719 277.210938 207.5625 275.796875 207.5625 C 274.378906 207.5625 273.238281 204.511719 273.238281 200.738281 C 273.238281 196.960938 274.378906 193.890625 275.796875 193.890625 Z M 135.828125 134.941406 L 135.828125 111.222656 L 135.863281 111.023438 C 136.183594 109.015625 137.203125 106.894531 138.875 105.300781 C 140.3125 103.902344 142.238281 102.898438 144.597656 102.664062 L 144.992188 106.773438 C 143.65625 106.894531 142.554688 107.484375 141.726562 108.269531 C 140.785156 109.175781 140.191406 110.355469 139.976562 111.476562 L 139.976562 126.878906 Z M 183.703125 152.191406 L 186.4375 152.191406 C 187.636719 152.191406 188.640625 153.175781 188.640625 154.394531 L 188.640625 161.671875 L 191.765625 162.519531 L 193.972656 182.050781 L 193.972656 163.109375 L 193.988281 163.128906 L 193.792969 142.21875 L 182.5625 139.171875 L 177.703125 158.722656 L 181.480469 159.746094 L 181.480469 154.394531 C 181.480469 153.175781 182.484375 152.191406 183.703125 152.191406 Z M 180.496094 133.328125 L 194.089844 118.929688 L 155.695312 121.234375 L 144.070312 131.597656 L 155.554688 117.398438 L 203.488281 114.722656 L 203.488281 188.503906 L 178.941406 188.503906 C 177.898438 180.695312 174.539062 174.96875 170.542969 174.96875 L 148.691406 174.96875 C 144.835938 176.40625 141.375 179.238281 138.640625 184.707031 L 138.640625 155.851562 C 129.097656 153.15625 118.378906 152.996094 108.820312 155.851562 L 108.820312 178.390625 L 97.804688 178.390625 C 93.714844 180.652344 91.804688 184.46875 89.996094 188.582031 C 91.375 183.742188 93.085938 177.859375 97.492188 174.96875 L 106.125 174.96875 L 106.125 154.199219 C 114.957031 148.59375 129.730469 147.273438 139.523438 149.339844 L 172.886719 156.382812 L 177.683594 138.425781 L 145.503906 138.425781 C 144.5 138.40625 143.734375 138.738281 143.242188 139.464844 L 140.785156 146.25 L 138.226562 145.699219 C 137.929688 145.640625 137.617188 145.582031 137.320312 145.523438 C 138.460938 142.21875 139.601562 138.894531 140.742188 135.59375 C 141.257812 134.6875 142.160156 134.15625 143.871094 134.292969 L 180.496094 133.328125 "/></g><path style=" stroke:none;fill-rule:evenodd;fill:#ffffff;fill-opacity:1;" d="M 150.34375 110.609375 L 150.105469 118.8125 L 153.332031 114.269531 L 210.414062 110.808594 L 210.414062 184 L 283.074219 189.113281 L 283.074219 183.878906 L 215.980469 176.070312 L 215.980469 165.726562 L 283.074219 179.140625 L 283.074219 173.101562 L 215.980469 156.164062 L 215.980469 147.570312 L 283.074219 169.167969 L 283.074219 162.480469 L 215.980469 133.566406 L 215.980469 128.3125 L 283.074219 159.195312 L 283.074219 151.464844 L 209.863281 105.792969 L 150.34375 110.609375 "/></g></svg>